<svg width="8" height="5" viewBox="0 0 8 5" fill="none" xmlns="http://www.w3.org/2000/svg">
<path fill-rule="evenodd" clip-rule="evenodd" d="M4.42729 3.84195C4.30123 3.96785 4.13034 4.03857 3.95217 4.03857C3.774 4.03857 3.60312 3.96785 3.47705 3.84195L0.941003 1.30679C0.814934 1.18066 0.744133 1.00962 0.744175 0.831292C0.744218 0.652962 0.815099 0.481954 0.941227 0.355885C1.06735 0.229817 1.2384 0.159016 1.41673 0.159058C1.59506 0.1591 1.76607 0.229981 1.89213 0.356109L3.95217 2.41615L6.01221 0.356109C6.13895 0.233577 6.30876 0.165728 6.48504 0.167176C6.66133 0.168624 6.82999 0.239253 6.95471 0.363852C7.07942 0.48845 7.15021 0.657048 7.15183 0.833332C7.15344 1.00962 7.08575 1.17948 6.96334 1.30634L4.42774 3.8424L4.42729 3.84195Z" fill="#594EF1"/>
</svg>
