<svg width="8" height="5" viewBox="0 0 8 5" fill="none" xmlns="http://www.w3.org/2000/svg">
<path fill-rule="evenodd" clip-rule="evenodd" d="M4.42729 4.21097C4.30123 4.33687 4.13034 4.40759 3.95217 4.40759C3.774 4.40759 3.60312 4.33687 3.47705 4.21097L0.941003 1.67581C0.814934 1.54968 0.744133 1.37864 0.744175 1.20031C0.744218 1.02198 0.815099 0.850972 0.941227 0.724904C1.06735 0.598835 1.2384 0.528034 1.41673 0.528076C1.59506 0.528118 1.76607 0.599 1.89213 0.725128L3.95217 2.78516L6.01221 0.725128C6.13895 0.602595 6.30876 0.534746 6.48504 0.536195C6.66133 0.537643 6.82999 0.608272 6.95471 0.73287C7.07942 0.857468 7.15021 1.02607 7.15183 1.20235C7.15344 1.37863 7.08575 1.5485 6.96334 1.67536L4.42774 4.21141L4.42729 4.21097Z" fill="#594EF1"/>
</svg>
