<svg width="17" height="18" viewBox="0 0 17 18" fill="none" xmlns="http://www.w3.org/2000/svg">
<path fill-rule="evenodd" clip-rule="evenodd" d="M3.63856 1.01697C6.73242 0.674031 9.8547 0.674031 12.9486 1.01697C14.6616 1.20897 16.0436 2.55797 16.2446 4.27697C16.6115 7.41461 16.6115 10.5843 16.2446 13.722C16.1428 14.5572 15.762 15.3337 15.1637 15.9254C14.5655 16.5171 13.7849 16.8894 12.9486 16.982C9.85476 17.326 6.73236 17.326 3.63856 16.982C2.80221 16.8894 2.02164 16.5171 1.42338 15.9254C0.825128 15.3337 0.444272 14.5572 0.34256 13.722C-0.0243429 10.5847 -0.0243429 7.41528 0.34256 4.27797C0.444228 3.44284 0.824939 2.66651 1.42299 2.07481C2.02105 1.48311 2.80139 1.11071 3.63756 1.01797L3.63856 1.01697ZM4.76356 5.46997C4.90419 5.32952 5.09481 5.25063 5.29356 5.25063C5.49231 5.25063 5.68293 5.32952 5.82356 5.46997L8.29356 7.93997L10.7636 5.46997C10.8322 5.39628 10.915 5.33718 11.007 5.29619C11.099 5.2552 11.1983 5.23315 11.299 5.23138C11.3997 5.2296 11.4998 5.24812 11.5932 5.28585C11.6865 5.32357 11.7714 5.37971 11.8426 5.45093C11.9138 5.52215 11.97 5.60698 12.0077 5.70037C12.0454 5.79376 12.0639 5.89379 12.0622 5.99449C12.0604 6.09519 12.0383 6.19451 11.9973 6.28651C11.9563 6.37851 11.8972 6.46131 11.8236 6.52997L9.35356 8.99997L11.8236 11.47C11.956 11.6121 12.0282 11.8002 12.0247 11.9945C12.0213 12.1888 11.9426 12.3742 11.8052 12.5116C11.6678 12.649 11.4824 12.7277 11.2881 12.7311C11.0938 12.7346 10.9057 12.6624 10.7636 12.53L8.29356 10.06L5.82356 12.53C5.7549 12.6037 5.6721 12.6628 5.5801 12.7037C5.4881 12.7447 5.38878 12.7668 5.28808 12.7686C5.18738 12.7703 5.08735 12.7518 4.99396 12.7141C4.90057 12.6764 4.81574 12.6202 4.74452 12.549C4.6733 12.4778 4.61716 12.393 4.57944 12.2996C4.54172 12.2062 4.52319 12.1061 4.52497 12.0054C4.52674 11.9047 4.54879 11.8054 4.58978 11.7134C4.63077 11.6214 4.68987 11.5386 4.76356 11.47L7.23356 8.99997L4.76356 6.52997C4.62311 6.38934 4.54422 6.19872 4.54422 5.99997C4.54422 5.80122 4.62311 5.61059 4.76356 5.46997Z" fill="white"/>
</svg>
