<svg width="13" height="15" viewBox="0 0 13 15" fill="none" xmlns="http://www.w3.org/2000/svg">
<path d="M0.44606 14.3975V0.470337L1.4906 1.51487L2.53513 0.470337L3.57967 1.51487L4.6242 0.470337L5.66874 1.51487L6.71327 0.470337L7.75781 1.51487L8.80234 0.470337L9.84688 1.51487L10.8914 0.470337L11.9359 1.51487L12.9805 0.470337V14.3975L11.9359 13.3529L10.8914 14.3975L9.84688 13.3529L8.80234 14.3975L7.75781 13.3529L6.71327 14.3975L5.66874 13.3529L4.6242 14.3975L3.57967 13.3529L2.53513 14.3975L1.4906 13.3529L0.44606 14.3975ZM2.53513 10.9157H10.8914V9.52298H2.53513V10.9157ZM2.53513 8.13026H10.8914V6.73755H2.53513V8.13026ZM2.53513 5.34484H10.8914V3.95212H2.53513V5.34484ZM1.83877 12.378H11.5878V2.48977H1.83877V12.378Z" fill="#594EF1"/>
</svg>
