<svg width="8" height="5" viewBox="0 0 8 5" fill="none" xmlns="http://www.w3.org/2000/svg">
<path fill-rule="evenodd" clip-rule="evenodd" d="M4.42729 3.92691C4.30123 4.05281 4.13034 4.12353 3.95217 4.12353C3.774 4.12353 3.60312 4.05281 3.47705 3.92691L0.941003 1.39175C0.814934 1.26563 0.744133 1.09458 0.744175 0.916253C0.744218 0.737923 0.815099 0.566914 0.941227 0.440846C1.06735 0.314778 1.2384 0.243977 1.41673 0.244019C1.59506 0.244061 1.76607 0.314942 1.89213 0.44107L3.95217 2.50111L6.01221 0.44107C6.13895 0.318537 6.30876 0.250689 6.48504 0.252137C6.66133 0.253585 6.82999 0.324214 6.95471 0.448813C7.07942 0.573411 7.15021 0.742009 7.15183 0.918293C7.15344 1.09458 7.08575 1.26444 6.96334 1.3913L4.42774 3.92736L4.42729 3.92691Z" fill="#594EF1"/>
</svg>
