<svg width="16" height="15" viewBox="0 0 16 15" fill="none" xmlns="http://www.w3.org/2000/svg">
<path d="M14.7632 7.12571L8.15876 0.521319C7.89459 0.257144 7.52768 0.0957031 7.12407 0.0957031H1.98733C1.18012 0.0957031 0.519684 0.756142 0.519684 1.56335V6.70009C0.519684 7.10369 0.681124 7.47061 0.952638 7.74212L7.55703 14.3465C7.8212 14.6107 8.18811 14.7721 8.59172 14.7721C8.99532 14.7721 9.36223 14.6107 9.6264 14.3392L14.7632 9.20242C15.0347 8.93825 15.1961 8.57134 15.1961 8.16774C15.1961 7.76413 15.0273 7.38988 14.7632 7.12571ZM8.59172 13.3118L1.98733 6.70009V1.56335H7.12407V1.55601L13.7285 8.1604L8.59172 13.3118Z" fill="#939191"/>
</svg>
