<svg width="8" height="5" viewBox="0 0 8 5" fill="none" xmlns="http://www.w3.org/2000/svg">
<path fill-rule="evenodd" clip-rule="evenodd" d="M3.46883 0.514071C3.59489 0.388165 3.76578 0.317444 3.94395 0.317444C4.12212 0.317444 4.293 0.388165 4.41906 0.514071L6.95512 3.04923C7.08118 3.17535 7.15198 3.3464 7.15194 3.52473C7.1519 3.70306 7.08102 3.87406 6.95489 4.00013C6.82876 4.1262 6.65772 4.197 6.47939 4.19696C6.30106 4.19692 6.13005 4.12604 6.00398 3.99991L3.94395 1.93987L1.88391 3.99991C1.75716 4.12244 1.58736 4.19029 1.41108 4.18884C1.23479 4.18739 1.06613 4.11676 0.941409 3.99217C0.816694 3.86757 0.745905 3.69897 0.744291 3.52269C0.742677 3.3464 0.810365 3.17654 0.932778 3.04967L3.46838 0.513622L3.46883 0.514071Z" fill="#594EF1"/>
</svg>
