<svg width="8" height="5" viewBox="0 0 8 5" fill="none" xmlns="http://www.w3.org/2000/svg">
<path fill-rule="evenodd" clip-rule="evenodd" d="M4.42729 4.38308C4.30123 4.50899 4.13034 4.57971 3.95217 4.57971C3.774 4.57971 3.60312 4.50899 3.47705 4.38308L0.941003 1.84793C0.814934 1.7218 0.744133 1.55076 0.744175 1.37243C0.744218 1.1941 0.815099 1.02309 0.941227 0.897023C1.06735 0.770954 1.2384 0.700153 1.41673 0.700195C1.59506 0.700237 1.76607 0.771119 1.89213 0.897247L3.95217 2.95728L6.01221 0.897247C6.13895 0.774714 6.30876 0.706865 6.48504 0.708314C6.66133 0.709762 6.82999 0.780391 6.95471 0.904989C7.07942 1.02959 7.15021 1.19819 7.15183 1.37447C7.15344 1.55075 7.08575 1.72062 6.96334 1.84748L4.42774 4.38353L4.42729 4.38308Z" fill="#594EF1"/>
</svg>
