<svg width="13" height="13" viewBox="0 0 13 13" fill="none" xmlns="http://www.w3.org/2000/svg">
<path d="M9.64147 8.21094H9.06066L8.8548 8.01243C9.31427 7.47865 9.65007 6.84991 9.83817 6.1712C10.0263 5.49249 10.062 4.78059 9.9429 4.08645C9.59736 2.04259 7.89169 0.410438 5.83312 0.160469C5.1094 0.0689108 4.37432 0.144126 3.68414 0.38036C2.99396 0.616593 2.36697 1.00758 1.85114 1.52341C1.33531 2.03924 0.944321 2.66623 0.708088 3.35641C0.471855 4.04659 0.396639 4.78167 0.488197 5.50539C0.738166 7.56396 2.37032 9.26963 4.41418 9.61517C5.10832 9.73431 5.82022 9.69855 6.49893 9.51044C7.17764 9.32234 7.80638 8.98654 8.34016 8.52707L8.53867 8.73293V9.31374L11.6633 12.4384C11.9647 12.7398 12.4573 12.7398 12.7587 12.4384C13.0602 12.1369 13.0602 11.6443 12.7587 11.3429L9.64147 8.21094ZM5.23025 8.21094C3.3996 8.21094 1.92184 6.73318 1.92184 4.90252C1.92184 3.07187 3.3996 1.59411 5.23025 1.59411C7.06091 1.59411 8.53867 3.07187 8.53867 4.90252C8.53867 6.73318 7.06091 8.21094 5.23025 8.21094Z" fill="#C1C1C1"/>
</svg>
