<svg width="8" height="5" viewBox="0 0 8 5" fill="none" xmlns="http://www.w3.org/2000/svg">
<path fill-rule="evenodd" clip-rule="evenodd" d="M4.42735 4.14786C4.30129 4.27376 4.1304 4.34448 3.95223 4.34448C3.77406 4.34448 3.60318 4.27376 3.47711 4.14786L0.941064 1.6127C0.814995 1.48657 0.744195 1.31553 0.744236 1.1372C0.744279 0.958871 0.81516 0.787862 0.941288 0.661793C1.06742 0.535725 1.23846 0.464924 1.41679 0.464966C1.59512 0.465008 1.76613 0.535889 1.8922 0.662017L3.95223 2.72205L6.01227 0.662017C6.13902 0.539485 6.30882 0.471636 6.4851 0.473084C6.66139 0.474532 6.83005 0.545162 6.95477 0.66976C7.07949 0.794358 7.15027 0.962956 7.15189 1.13924C7.1535 1.31552 7.08581 1.48539 6.9634 1.61225L4.4278 4.1483L4.42735 4.14786Z" fill="#594EF1"/>
</svg>
