<svg width="8" height="5" viewBox="0 0 8 5" fill="none" xmlns="http://www.w3.org/2000/svg">
<path fill-rule="evenodd" clip-rule="evenodd" d="M4.42735 4.43191C4.30129 4.55782 4.1304 4.62854 3.95223 4.62854C3.77406 4.62854 3.60318 4.55782 3.47711 4.43191L0.941064 1.89676C0.814995 1.77063 0.744195 1.59959 0.744236 1.42126C0.744279 1.24293 0.81516 1.07192 0.941288 0.945851C1.06742 0.819782 1.23846 0.748981 1.41679 0.749023C1.59512 0.749065 1.76613 0.819947 1.8922 0.946075L3.95223 3.00611L6.01227 0.946075C6.13902 0.823542 6.30882 0.755694 6.4851 0.757142C6.66139 0.75859 6.83005 0.829219 6.95477 0.953817C7.07949 1.07842 7.15027 1.24701 7.15189 1.4233C7.1535 1.59958 7.08581 1.76945 6.9634 1.89631L4.4278 4.43236L4.42735 4.43191Z" fill="#594EF1"/>
</svg>
