<svg width="8" height="5" viewBox="0 0 8 5" fill="none" xmlns="http://www.w3.org/2000/svg">
<path fill-rule="evenodd" clip-rule="evenodd" d="M4.42735 4.06289C4.30129 4.1888 4.1304 4.25952 3.95223 4.25952C3.77406 4.25952 3.60318 4.1888 3.47711 4.06289L0.941064 1.52774C0.814995 1.40161 0.744195 1.23057 0.744236 1.05224C0.744279 0.87391 0.81516 0.702901 0.941288 0.576832C1.06742 0.450764 1.23846 0.379963 1.41679 0.380005C1.59512 0.380047 1.76613 0.450928 1.8922 0.577056L3.95223 2.63709L6.01227 0.577056C6.13902 0.454524 6.30882 0.386675 6.4851 0.388123C6.66139 0.389571 6.83005 0.460201 6.95477 0.584799C7.07949 0.709397 7.15027 0.877995 7.15189 1.05428C7.1535 1.23056 7.08581 1.40043 6.9634 1.52729L4.4278 4.06334L4.42735 4.06289Z" fill="#594EF1"/>
</svg>
