<svg width="8" height="5" viewBox="0 0 8 5" fill="none" xmlns="http://www.w3.org/2000/svg">
<path fill-rule="evenodd" clip-rule="evenodd" d="M4.42729 4.21921C4.30123 4.34511 4.13034 4.41583 3.95217 4.41583C3.774 4.41583 3.60312 4.34511 3.47705 4.21921L0.941003 1.68405C0.814934 1.55792 0.744133 1.38688 0.744175 1.20855C0.744218 1.03022 0.815099 0.859212 0.941227 0.733143C1.06735 0.607075 1.2384 0.536274 1.41673 0.536316C1.59506 0.536358 1.76607 0.60724 1.89213 0.733367L3.95217 2.7934L6.01221 0.733367C6.13895 0.610835 6.30876 0.542986 6.48504 0.544434C6.66133 0.545882 6.82999 0.616512 6.95471 0.74111C7.07942 0.865708 7.15021 1.03431 7.15183 1.21059C7.15344 1.38687 7.08575 1.55674 6.96334 1.6836L4.42774 4.21965L4.42729 4.21921Z" fill="#594EF1"/>
</svg>
