<svg width="8" height="4" viewBox="0 0 8 4" fill="none" xmlns="http://www.w3.org/2000/svg">
<path fill-rule="evenodd" clip-rule="evenodd" d="M4.42729 3.77939C4.30123 3.90529 4.13034 3.97601 3.95217 3.97601C3.774 3.97601 3.60312 3.90529 3.47705 3.77939L0.941003 1.24423C0.814934 1.1181 0.744133 0.947061 0.744175 0.768731C0.744218 0.590401 0.815099 0.419392 0.941227 0.293324C1.06735 0.167256 1.2384 0.0964546 1.41673 0.0964966C1.59506 0.0965386 1.76607 0.16742 1.89213 0.293548L3.95217 2.35359L6.01221 0.293548C6.13895 0.171016 6.30876 0.103167 6.48504 0.104615C6.66133 0.106063 6.82999 0.176692 6.95471 0.301291C7.07942 0.425889 7.15021 0.594487 7.15183 0.770771C7.15344 0.947055 7.08575 1.11692 6.96334 1.24378L4.42774 3.77983L4.42729 3.77939Z" fill="#594EF1"/>
</svg>
