<svg width="7" height="4" viewBox="0 0 7 4" fill="none" xmlns="http://www.w3.org/2000/svg">
<path fill-rule="evenodd" clip-rule="evenodd" d="M4.28294 3.77896C4.15688 3.90487 3.98599 3.97559 3.80782 3.97559C3.62965 3.97559 3.45877 3.90487 3.33271 3.77896L0.796655 1.2438C0.670586 1.11768 0.599785 0.946633 0.599827 0.768304C0.59987 0.589974 0.670751 0.418965 0.796879 0.292897C0.923007 0.166828 1.09405 0.0960273 1.27238 0.0960694C1.45071 0.0961114 1.62172 0.166993 1.74779 0.293121L3.80782 2.35316L5.86786 0.293121C5.99461 0.170588 6.16441 0.102739 6.34069 0.104188C6.51698 0.105636 6.68564 0.176265 6.81036 0.300863C6.93508 0.425462 7.00586 0.594059 7.00748 0.770344C7.00909 0.946628 6.9414 1.11649 6.81899 1.24336L4.28339 3.77941L4.28294 3.77896Z" fill="#594EF1"/>
</svg>
