<svg width="8" height="5" viewBox="0 0 8 5" fill="none" xmlns="http://www.w3.org/2000/svg">
<path fill-rule="evenodd" clip-rule="evenodd" d="M4.42735 4.60403C4.30129 4.72994 4.1304 4.80066 3.95223 4.80066C3.77406 4.80066 3.60318 4.72994 3.47711 4.60403L0.941064 2.06888C0.814995 1.94275 0.744195 1.77171 0.744236 1.59338C0.744279 1.41505 0.81516 1.24404 0.941288 1.11797C1.06742 0.991902 1.23846 0.921101 1.41679 0.921143C1.59512 0.921185 1.76613 0.992066 1.8922 1.11819L3.95223 3.17823L6.01227 1.11819C6.13902 0.995662 6.30882 0.927813 6.4851 0.929261C6.66139 0.930709 6.83005 1.00134 6.95477 1.12594C7.07949 1.25053 7.15027 1.41913 7.15189 1.59542C7.1535 1.7717 7.08581 1.94157 6.9634 2.06843L4.4278 4.60448L4.42735 4.60403Z" fill="#594EF1"/>
</svg>
